
      <svg data-logo="logo" xmlns="http://www.w3.org/2000/svg" viewBox="0 0 282 45">
        <g id="logogram" transform="translate(0, 1) rotate(0) "><path d="M37.5 27.0752C37.5 20.4478 32.1274 15.0752 25.5 15.0752H15.5V27.0752H25.5V42.0752H37.5V27.0752Z" fill="#FF4D00"/><path d="M0.5 28.0752C0.500001 35.8072 6.76801 42.0752 14.5 42.0752L22.5 42.0752L22.5 30.0752H14.5C13.3954 30.0752 12.5 29.1798 12.5 28.0752V27.0752L0.5 27.0752L0.5 28.0752Z" fill="#FF4D00"/><path d="M25.5 0.0751953C40.4117 0.0751953 52.5 12.1635 52.5 27.0752V42.0752H40.5V27.0752C40.5 18.7909 33.7843 12.0752 25.5 12.0752H14.5C13.3954 12.0752 12.5 12.9706 12.5 14.0752V15.0752H0.500001V14.0752C0.500002 6.34321 6.76802 0.0751953 14.5 0.0751953H25.5Z" fill="#FF4D00"/></g>
        <g id="logotype" transform="translate(59, 3)"><path fill="#111111" d="M21.79 32L7.75 32L7.75 7.50L12.65 7.50L12.65 27.59L21.79 27.59L21.79 32ZM30.82 32.42L30.82 32.42Q28.86 32.42 27.28 31.51Q25.71 30.60 24.80 28.90Q23.89 27.20 23.89 24.93L23.89 24.93L23.89 13.80L28.61 13.80L28.61 23.77Q28.61 26.12 29.55 27.20Q30.50 28.29 32.25 28.29L32.25 28.29Q33.76 28.29 34.89 27.20Q36.03 26.12 36.03 23.77L36.03 23.77L36.03 13.80L40.76 13.80L40.76 32L36.17 32L36.17 29.27Q35.51 30.84 34.23 31.63Q32.95 32.42 30.82 32.42ZM47.44 32L41.80 32L48.63 22.90L42.16 13.80L47.79 13.80L51.50 19.57L55.35 13.80L60.88 13.80L54.41 22.97L61.23 32L55.49 32L51.54 26.19L47.44 32ZM69.03 32.42L69.03 32.42Q67.08 32.42 65.50 31.51Q63.93 30.60 63.02 28.90Q62.11 27.20 62.11 24.93L62.11 24.93L62.11 13.80L66.83 13.80L66.83 23.77Q66.83 26.12 67.78 27.20Q68.72 28.29 70.47 28.29L70.47 28.29Q71.98 28.29 73.11 27.20Q74.25 26.12 74.25 23.77L74.25 23.77L74.25 13.80L78.98 13.80L78.98 32L74.39 32L74.39 29.27Q73.73 30.84 72.45 31.63Q71.17 32.42 69.03 32.42ZM86.50 32L81.78 32L81.78 13.80L86.36 13.80L86.36 17.27Q86.81 15.30 88.22 14.27Q89.61 13.24 92.00 13.38L92.00 13.38L92.00 17.82L91.33 17.82Q89.30 17.82 87.90 19.12Q86.50 20.41 86.50 22.69L86.50 22.69L86.50 32ZM95.88 39.31L95.88 39.31Q95.18 39.31 94.31 39.25Q93.43 39.17 92.73 38.97L92.73 38.97L93.43 34.45Q94.41 34.70 95.56 34.70L95.56 34.70Q96.93 34.70 97.81 33.91Q98.68 33.12 99.06 31.93L99.06 31.93L99.31 31.16L92.10 13.80L97.81 13.80L101.34 24.20Q101.83 25.59 102.11 27.10L102.11 27.10Q102.39 25.59 102.88 24.20L102.88 24.20L106.42 13.80L112.02 13.80L103.97 33.16Q102.81 35.92 100.95 37.62Q99.10 39.31 95.88 39.31ZM127.66 32L113.24 32L113.24 7.50L127.59 7.50L127.59 11.91L118.14 11.91L118.14 17.41L127.42 17.41L127.42 21.67L118.14 21.67L118.14 27.59L127.66 27.59L127.66 32ZM136.66 32.45L136.66 32.45Q132.07 32.45 129.09 29.27L129.09 29.27L132.28 26.36Q134.28 28.61 136.55 28.61L136.55 28.61Q137.78 28.61 138.42 28.06Q139.07 27.52 139.07 26.71L139.07 26.71Q139.07 26.23 138.84 25.88Q138.62 25.52 137.90 25.21Q137.18 24.89 135.75 24.58L135.75 24.58Q133.30 23.98 132.11 23.11Q130.91 22.23 130.53 21.15Q130.15 20.06 130.15 18.91L130.15 18.91Q130.15 16.53 131.95 14.94Q133.75 13.34 136.94 13.34L136.94 13.34Q139.14 13.34 140.72 14.01Q142.29 14.67 143.69 16.49L143.69 16.49L140.26 19.12Q139.59 18.07 138.77 17.61Q137.95 17.16 137.04 17.16L137.04 17.16Q136.06 17.16 135.41 17.54Q134.77 17.93 134.77 18.77L134.77 18.77Q134.77 19.23 135.19 19.66Q135.61 20.10 137.22 20.52L137.22 20.52Q139.88 21.18 141.28 22.08Q142.68 22.97 143.20 24.09Q143.72 25.21 143.72 26.57L143.72 26.57Q143.72 28.25 142.80 29.59Q141.87 30.91 140.28 31.68Q138.69 32.45 136.66 32.45ZM154.75 32L152.16 32Q149.47 32 148.03 30.67Q146.59 29.34 146.59 26.36L146.59 26.36L146.59 17.82L144.04 17.82L144.04 13.80L146.59 13.80L146.59 10.12L151.32 9.63L151.32 13.80L155.17 13.80L155.17 17.82L151.32 17.82L151.32 26.12Q151.32 27.80 152.79 27.80L152.79 27.80L154.75 27.80L154.75 32ZM164.55 32.45L164.55 32.45Q162.06 32.45 160.02 31.18Q157.97 29.90 156.76 27.75Q155.55 25.59 155.55 22.97L155.55 22.97Q155.55 21.01 156.25 19.28Q156.95 17.54 158.18 16.23Q159.41 14.92 161.03 14.17Q162.66 13.41 164.55 13.41L164.55 13.41Q166.93 13.41 168.26 14.31Q169.59 15.20 170.32 16.67L170.32 16.67L170.32 13.80L175.01 13.80L175.01 32L170.43 32L170.43 29.02Q169.69 30.57 168.35 31.51Q167 32.45 164.55 32.45ZM165.32 28.18L165.32 28.18Q166.89 28.18 168.03 27.47Q169.17 26.75 169.80 25.56Q170.43 24.37 170.43 22.97L170.43 22.97Q170.43 21.53 169.80 20.34Q169.17 19.16 168.03 18.42Q166.89 17.68 165.32 17.68L165.32 17.68Q163.81 17.68 162.68 18.40Q161.54 19.12 160.91 20.31Q160.28 21.50 160.28 22.93L160.28 22.93Q160.28 24.30 160.91 25.51Q161.54 26.71 162.68 27.45Q163.81 28.18 165.32 28.18ZM187.30 32L184.71 32Q182.01 32 180.58 30.67Q179.14 29.34 179.14 26.36L179.14 26.36L179.14 17.82L176.59 17.82L176.59 13.80L179.14 13.80L179.14 10.12L183.87 9.63L183.87 13.80L187.72 13.80L187.72 17.82L183.87 17.82L183.87 26.12Q183.87 27.80 185.34 27.80L185.34 27.80L187.30 27.80L187.30 32ZM197.52 32.45L197.52 32.45Q194.72 32.45 192.58 31.16Q190.45 29.86 189.28 27.71Q188.10 25.56 188.10 22.93L188.10 22.93Q188.10 20.31 189.33 18.12Q190.55 15.93 192.67 14.64Q194.79 13.34 197.52 13.34L197.52 13.34Q200.25 13.34 202.33 14.64Q204.41 15.93 205.59 18.12Q206.76 20.31 206.76 22.93L206.76 22.93Q206.76 23.32 206.72 23.74Q206.69 24.16 206.62 24.61L206.62 24.61L193.00 24.61Q193.39 26.23 194.56 27.24Q195.73 28.25 197.52 28.25L197.52 28.25Q199.06 28.25 200.20 27.55Q201.33 26.86 201.96 25.80L201.96 25.80L205.64 28.57Q204.55 30.29 202.38 31.37Q200.21 32.45 197.52 32.45ZM197.45 17.41L197.45 17.41Q195.77 17.41 194.58 18.42Q193.39 19.43 193.00 21.08L193.00 21.08L202.00 21.08Q201.61 19.57 200.41 18.49Q199.20 17.41 197.45 17.41ZM214.53 32.45L214.53 32.45Q209.94 32.45 206.97 29.27L206.97 29.27L210.15 26.36Q212.15 28.61 214.42 28.61L214.42 28.61Q215.65 28.61 216.30 28.06Q216.94 27.52 216.94 26.71L216.94 26.71Q216.94 26.23 216.72 25.88Q216.49 25.52 215.77 25.21Q215.05 24.89 213.62 24.58L213.62 24.58Q211.17 23.98 209.98 23.11Q208.79 22.23 208.40 21.15Q208.02 20.06 208.02 18.91L208.02 18.91Q208.02 16.53 209.82 14.94Q211.62 13.34 214.81 13.34L214.81 13.34Q217.01 13.34 218.59 14.01Q220.16 14.67 221.56 16.49L221.56 16.49L218.13 19.12Q217.47 18.07 216.65 17.61Q215.82 17.16 214.91 17.16L214.91 17.16Q213.93 17.16 213.29 17.54Q212.64 17.93 212.64 18.77L212.64 18.77Q212.64 19.23 213.06 19.66Q213.48 20.10 215.09 20.52L215.09 20.52Q217.75 21.18 219.15 22.08Q220.55 22.97 221.07 24.09Q221.60 25.21 221.60 26.57L221.60 26.57Q221.60 28.25 220.67 29.59Q219.74 30.91 218.15 31.68Q216.56 32.45 214.53 32.45Z"/></g>
        
      </svg>
    